# AST/ASF file generated using VICON BodyLanguage
# -----------------------------------------------
:version 1.10
:name VICON
:units
  mass 1.0
  length 0.45
  angle deg
:documentation
   .ast/.asf automatically generated from VICON data using
   VICON BodyBuilder and BodyLanguage model FoxedUp or BRILLIANT.MOD
:root
   order TX TY TZ RX RY RZ
   axis XYZ
   position 0 0 0  
   orientation 0 0 0 
:bonedata
  begin
     id 1 
     name lhipjoint
     direction 0.678564 -0.644259 0.352817 
     length 2.99514 
     axis 0 0 0  XYZ
  end
  begin
     id 2 
     name lfemur
     direction 0.34202 -0.939693 0  
     length 7.29983  
     axis 0 0 20  XYZ
    dof rx ry rz
    limits (-160.0 20.0)
           (-70.0 70.0)
           (-60.0 70.0)
  end
  begin
     id 3 
     name ltibia
     direction 0.34202 -0.939693 0   
     length 8.59502   
     axis 0 0 20   XYZ
    dof rx
    limits (-10.0 170.0)
  end
  begin
     id 4 
     name lfoot
     direction 0.256607 -0.705022 0.661133   
     length 2.92136   
     axis -90 7.62852e-016 20   XYZ
    dof rx rz
    limits (-45.0 90.0)
           (-70.0 20.0)
  end
  begin
     id 5 
     name ltoes
     direction 1.53673e-011 -4.22167e-011 1   
     length 1.31421   
     axis -90 7.62852e-016 20   XYZ
    dof rx
    limits (-90.0 20.0)
  end
  begin
     id 6 
     name rhipjoint
     direction -0.664671 -0.655307 0.358867   
     length 2.94464  
     axis 0 0 0  XYZ 
  end
  begin
     id 7 
     name rfemur
     direction -0.34202 -0.939693 0   
     length 7.1902   
     axis 0 0 -20   XYZ
    dof rx ry rz
    limits (-160.0 20.0)
           (-70.0 70.0)
           (-70.0 60.0)
  end
  begin
     id 8 
     name rtibia
     direction -0.342306 -0.939589 0   
     length 7.92304   
     axis 0 0 -20   XYZ
    dof rx
    limits (-10.0 170.0)
 end
 begin
     id 9 
     name rfoot
     direction -0.135083 -0.371136 0.9187   
     length 2.14777  
     axis -90 -7.62852e-016 -20   XYZ
    dof rx rz
    limits (-45.0 90.0)
           (-20.0 70.0)
  end
  begin
     id 10 
     name rtoes
     direction -1.53535e-011 -4.21537e-011 1   
     length 1.05997   
     axis -90 -7.62852e-016 -20   XYZ
    dof rx
    limits (-90.0 20.0)
  end
  begin
     id 11 
     name lowerback
     direction -0.0195507 0.995133 0.0965771   
     length 2.09792   
     axis 0 0 0   XYZ
    dof rx ry rz
    limits (-20.0 45.0)
           (-30.0 30.0)
           (-30.0 30.0)
  end
  begin
     id 12 
     name upperback
     direction 0.00551419 0.999637 0.0263729   
     length 2.10514   
     axis 0 0 0   XYZ
    dof rx ry rz
    limits (-20.0 45.0)
           (-30.0 30.0)
           (-30.0 30.0)
  end
  begin
     id 13 
     name thorax
     direction 0.0138853 0.999728 -0.0187549   
     length 2.12411   
     axis 0 0 0   XYZ
    dof rx ry rz
    limits (-20.0 45.0)
           (-30.0 30.0)
           (-30.0 30.0)
  end
  begin
     id 14 
     name lowerneck
     direction 0.00575564 0.995441 0.0952053   
     length 2.98955   
     axis 0 0 0   XYZ
    dof rx ry rz
    limits (-20.0 45.0)
           (-30.0 30.0)
           (-30.0 30.0)
  end
  begin
     id 15 
     name upperneck
     direction 0.0362743 0.998452 -0.0421753   
     length 3.03688   
     axis 0 0 0   XYZ
    dof rx ry rz
    limits (-20.0 45.0)
           (-30.0 30.0)
           (-30.0 30.0)
  end
  begin
     id 16
     name head
     direction -0.0138164 0.799054 0.6011  
     length 1.47017  
     axis 0 0 0   XYZ
    dof rx ry rz
    limits (-20.0 45.0)
           (-30.0 30.0)
           (-30.0 30.0)
  end
  begin
     id 17 
     name lclavicle
     direction 0.925636 0.378361 -0.006363  
     length 3.33831  
     axis 0 0 0   XYZ
    dof ry rz
    limits (-20.0 10.0)
           (0.0 20.0)
  end
  begin
     id 18 
     name lhumerus
     direction 1 -4.48983e-011 -5.50319e-028   
     length 4.79344   
     axis -180 -30 -90   XYZ
    dof rx ry rz
    limits (-60.0 90.0)
           (-90.0 90.0)
           (-90.0 90.0)
  end
  begin
     id 19
     name lradius
     direction 1 -4.48905e-011 9.20478e-027   
     length 2.94221   
     axis -180 -30 -90   XYZ
    dof rx
    limits (-10.0 170.0)
  end
  begin
     id 20
     name lwrist
     direction 1 -4.4898e-011 2.08228e-026   
     length 1.4711   
     axis -1.38353e-014 90 90   XYZ
    dof ry
    limits (-180.0 0.0)
 end
  begin
     id 21 
     name lhand
     direction 1 -4.48957e-011 4.16456e-026   
     length 0.889984   
     axis -2.65735e-014 90 90   XYZ
    dof rx rz
    limits (-90.0 90.0)
           (-45.0 45.0)
  end
  begin
     id 22 
     name lfingers
     direction 1 -4.49044e-011 8.32913e-026   
     length 0.717528   
     axis -5.3147e-014 90 90   XYZ
    dof rx
    limits (0.0 90.0)
  end
  begin
     id 23
     name lthumb
     direction 0.707107 -6.35171e-011 0.707107   
     length 1.03023   
     axis -90 45 2.85299e-015   XYZ
    dof rx rz
    limits (-45.0 45.0)
           (-45.0 45.0)
  end
  begin
     id 24 
     name rclavicle
     direction -0.892514 0.445149 0.0725343   
     length 3.17271  
     axis 0 0 0   XYZ 
    dof ry rz
    limits (-10.0 20.0)
           (-20.0 0.0)
  end
  begin
     id 25 
     name rhumerus
     direction -1 -4.48952e-011 5.59695e-028  
     length 5.4863   
     axis -180 30 90   XYZ
    dof rx ry rz
    limits (-90.0 60.0)
           (-90.0 90.0)
           (-90.0 90.0)
  end
  begin
     id 26 
     name rradius
     direction -1 -4.48963e-011 1.14146e-026   
     length 3.17201   
     axis -180 30 90   XYZ
    dof rx
    limits (-10.0 170.0)
  end
  begin
     id 27 
     name rwrist
     direction -1 -4.49046e-011 2.08228e-026   
     length 1.58601   
     axis -1.38353e-014 -90 -90   XYZ
    dof ry
    limits (-180.0 0.0)
  end
  begin
     id 28
     name rhand
     direction -1 -4.48815e-011 4.16456e-026   
     length 0.874513   
     axis -2.65735e-014 -90 -90   XYZ
    dof rx rz
    limits (-90.0 90.0)
           (-45.0 45.0)
  end
  begin
     id 29
     name rfingers
     direction -1 -4.48918e-011 8.32913e-026   
     length 0.705055   
     axis -5.3147e-014 -90 -90   XYZ
    dof rx
    limits (0.0 90.0)
  end
  begin
     id 30
     name rthumb
     direction -0.707107 -6.34858e-011 0.707107   
     length 1.01232   
     axis -90 -45 -2.85299e-015   XYZ
    dof rx rz
    limits (-45.0 45.0)
           (-45.0 45.0)
  end
:hierarchy
  begin
    root lhipjoint rhipjoint lowerback
    lhipjoint lfemur
    lfemur ltibia
    ltibia lfoot
    lfoot ltoes
    rhipjoint rfemur
    rfemur rtibia
    rtibia rfoot
    rfoot rtoes
    lowerback upperback
    upperback thorax
    thorax lowerneck lclavicle rclavicle
    lowerneck upperneck
    upperneck head
    lclavicle lhumerus
    lhumerus lradius
    lradius lwrist
    lwrist lhand lthumb
    lhand lfingers
    rclavicle rhumerus
    rhumerus rradius
    rradius rwrist
    rwrist rhand rthumb
    rhand rfingers
  end

#!OML:ASF F:\VICON\USERDATA\INSTALL\rory3\rory3.ASF
:FULLY-SPECIFIED
:DEGREES
519
root 3.41499 18.4933 -0.702493 -3.49666 87.8816 -17.0007
lowerback -12.591 -0.847928 -1.17286
upperback -5.73059 -0.779794 2.14978
thorax 1.1015 -0.234381 2.79664
lowerneck -20.7189 -10.9493 4.20944
upperneck 2.98098 37.4576 2.55711
head 27.6146 34.9908 180.668
rclavicle -5.61567e-015 5.96354e-015
rhumerus -10.6564 12.8529 -71.4212
rradius 116.108
rwrist -6.63028
rhand -30.9775 -1.92035
rfingers 7.12502
rthumb -4.26137 -31.8575
lclavicle -5.61567e-015 5.96354e-015
lhumerus -15.2775 -16.4577 79.6142
lradius 110.162
lwrist 13.2396
lhand -38.8989 -12.5658
lfingers 7.12502
lthumb -11.9062 17.0756
rfemur -12.1136 17.7453 18.0805
rtibia 11.2978
rfoot -17.8034 -18.316
rtoes -13.8509
lfemur -13.0698 -3.7888 -22.0145
ltibia 16.2276
lfoot -2.73754 4.4987
ltoes -9.97602
520
root 3.41677 18.4916 -0.701971 -4.18472 87.8623 -17.6988
lowerback -12.5052 -0.819563 -1.07036
upperback -5.80964 -0.748681 2.1071
thorax 0.969258 -0.21756 2.69872
lowerneck -20.6342 -10.96 4.18874
upperneck 3.01783 37.4521 2.59382
head 27.5849 35.0094 180.592
rclavicle 7.65321e-015 -1.35174e-014
rhumerus -11.0436 13.1115 -71.4821
rradius 116.002
rwrist -7.50175
rhand -30.8395 -2.28269
rfingers 7.12502
rthumb -4.12819 -32.2224
lclavicle 7.65321e-015 -1.35174e-014
lhumerus -15.7245 -16.7595 79.5632
lradius 110.213
lwrist 13.8567
lhand -39.1395 -12.6588
lfingers 7.12502
lthumb -12.1381 16.9691
rfemur -12.1455 17.6659 18.1236
rtibia 11.3272
rfoot -17.77 -18.2507
rtoes -13.923
lfemur -13.0791 -3.74479 -21.9871
ltibia 16.2275
lfoot -2.74596 4.50135
ltoes -10.0017
521
root 3.4199 18.4909 -0.700901 -6.08012 87.8512 -19.5638
lowerback -12.4461 -0.814906 -1.01617
upperback -5.8311 -0.748057 2.14704
thorax 0.914775 -0.216501 2.71012
lowerneck -20.599 -10.9475 4.12215
upperneck 3.03454 37.5073 2.59242
head 27.5854 35.0651 180.565
rclavicle -1.41386e-014 1.39149e-014
rhumerus -11.3767 13.4552 -71.4494
rradius 115.938
rwrist -8.71209
rhand -30.6421 -2.62174
rfingers 7.12502
rthumb -3.93754 -32.5651
lclavicle -1.41386e-014 1.39149e-014
lhumerus -16.1899 -16.843 79.5573
lradius 110.261
lwrist 14.1317
lhand -38.8914 -12.3296
lfingers 7.12502
lthumb -11.8989 17.3123
rfemur -12.1338 17.7121 18.2172
rtibia 11.391
rfoot -17.8574 -18.2837
rtoes -13.6456
lfemur -13.0139 -3.68005 -21.9119
ltibia 16.204
lfoot -2.79996 4.51901
ltoes -10.0574
522
root 3.42365 18.4925 -0.701154 -6.23434 87.8397 -19.7142
lowerback -12.474 -0.802844 -0.970117
upperback -5.82126 -0.73733 2.14242
thorax 0.938908 -0.212346 2.68052
lowerneck -20.5893 -10.9427 4.07858
upperneck 3.04043 37.5567 2.58047
head 27.6013 35.1011 180.576
rclavicle -1.30452e-014 2.10712e-014
rhumerus -11.687 13.7869 -71.4443
rradius 115.878
rwrist -10.1661
rhand -30.4306 -2.87036
rfingers 7.12502
rthumb -3.73325 -32.8174
lclavicle -1.30452e-014 2.10712e-014
lhumerus -16.5965 -16.7939 79.478
lradius 110.253
lwrist 14.2856
lhand -38.2448 -11.8798
lfingers 7.12502
lthumb -11.2754 17.7971
rfemur -12.1512 17.7087 18.2313
rtibia 11.4596
rfoot -17.9497 -18.2865
rtoes -13.65
lfemur -12.9612 -3.73685 -21.8975
ltibia 16.1477
lfoot -2.75538 4.50928
ltoes -10.0594
523
root 3.42823 18.4919 -0.70183 -4.09791 87.8436 -17.5893
lowerback -12.5398 -0.819218 -1.01733
upperback -5.81085 -0.753659 2.12185
thorax 0.986452 -0.220595 2.68334
lowerneck -20.5745 -10.8861 4.00917
upperneck 3.08486 37.7643 2.60297
head 27.671 35.3308 180.556
rclavicle -8.02593e-015 1.35174e-014
rhumerus -12.062 14.2019 -71.4664
rradius 115.792
rwrist -11.8169
rhand -30.2018 -3.03613
rfingers 7.12502
rthumb -3.51236 -32.9869
lclavicle -8.02593e-015 1.35174e-014
lhumerus -16.9737 -16.6946 79.3471
lradius 110.151
lwrist 14.468
lhand -37.2814 -11.3686
lfingers 7.12502
lthumb -10.3461 18.3569
rfemur -12.1897 17.6087 18.1517
rtibia 11.5364
rfoot -17.96 -18.211
rtoes -13.8099
lfemur -12.9114 -3.7904 -21.9836
ltibia 16.0497
lfoot -2.72267 4.43666
ltoes -9.96552
524
root 3.43235 18.4922 -0.700605 -0.985766 87.8204 -14.4858
lowerback -12.5098 -0.831829 -1.12424
upperback -5.87363 -0.754626 2.09866
thorax 0.905666 -0.217077 2.71982
lowerneck -20.4826 -10.8304 3.91573
upperneck 3.17581 38.0462 2.65724
head 27.7627 35.6504 180.513
rclavicle 5.56597e-015 -7.55382e-015
rhumerus -12.5888 14.6988 -71.4595
rradius 115.704
rwrist -13.6204
rhand -29.8953 -3.42314
rfingers 7.12502
rthumb -3.21637 -33.3786
lclavicle 5.56597e-015 -7.55382e-015
lhumerus -17.504 -16.8321 79.319
lradius 110.057
lwrist 15.1371
lhand -36.689 -11.0504
lfingers 7.12502
lthumb -9.7746 18.7027
rfemur -12.2449 17.7435 18.0114
rtibia 11.6312
rfoot -18.0208 -18.288
rtoes -14.155
lfemur -12.8423 -3.79985 -22.1025
ltibia 15.927
lfoot -2.72783 4.38904
ltoes -9.97199
525
root 3.43498 18.494 -0.699524 -0.217278 87.7875 -13.7356
lowerback -12.4609 -0.82523 -1.12682
upperback -5.94855 -0.740969 2.08183
thorax 0.800065 -0.207174 2.70592
lowerneck -20.3642 -10.8166 3.85098
upperneck 3.241 38.157 2.69675
head 27.7746 35.7667 180.454
rclavicle -3.47873e-015 3.18055e-015
rhumerus -13.208 15.2412 -71.6159
rradius 115.574
rwrist -15.4881
rhand -29.561 -3.74179
rfingers 7.12502
rthumb -2.89346 -33.7019
lclavicle -3.47873e-015 3.18055e-015
lhumerus -18.1445 -17.0476 79.3269
lradius 110.028
lwrist 16.0693
lhand -36.2984 -10.5672
lfingers 7.12502
lthumb -9.39772 19.2033
rfemur -12.307 18.0845 17.9394
rtibia 11.7031
rfoot -18.1359 -18.5679
rtoes -14.3094
lfemur -12.7977 -3.77036 -22.1309
ltibia 15.8267
lfoot -2.75844 4.34496
ltoes -9.93061
526
root 3.43975 18.4935 -0.699918 -0.206688 87.751 -13.744
lowerback -12.5455 -0.8202 -1.10675
upperback -5.92466 -0.737053 2.09372
thorax 0.870291 -0.206394 2.70711
lowerneck -20.3656 -10.7823 3.79085
upperneck 3.25603 38.2688 2.69254
head 27.8041 35.8617 180.444
rclavicle -9.49197e-015 9.54166e-015
rhumerus -13.7486 15.8679 -71.8823
rradius 115.351
rwrist -17.2332
rhand -29.3456 -4.13164
rfingers 7.12502
rthumb -2.6855 -34.0945
lclavicle -9.49197e-015 9.54166e-015
lhumerus -18.7115 -17.1633 79.3327
lradius 109.999
lwrist 16.9175
lhand -35.8907 -10.0405
lfingers 7.12502
lthumb -9.00438 19.7473
rfemur -12.3217 18.1964 17.9261
rtibia 11.704
rfoot -18.1059 -18.6393
rtoes -14.0938
lfemur -12.7658 -3.71532 -22.1408
ltibia 15.778
lfoot -2.77326 4.32278
ltoes -9.90195
527
root 3.44658 18.4919 -0.700787 -0.37023 87.7316 -13.9152
lowerback -12.6163 -0.822879 -1.07408
upperback -5.9181 -0.743761 2.10617
thorax 0.915391 -0.210352 2.70047
lowerneck -20.3372 -10.7549 3.74495
upperneck 3.28493 38.3938 2.69605
head 27.8436 35.9513 180.447
rclavicle 2.48481e-016 -2.78299e-015
rhumerus -14.2242 16.5045 -71.933
rradius 115.062
rwrist -19.1679
rhand -29.1261 -4.78375
rfingers 7.12502
rthumb -2.47346 -34.7492
lclavicle 2.48481e-016 -2.78299e-015
lhumerus -19.3616 -17.3154 79.3474
lradius 109.975
lwrist 17.7985
lhand -35.4676 -9.3854
lfingers 7.12502
lthumb -8.596 20.4196
rfemur -12.2569 18.105 17.9518
rtibia 11.6333
rfoot -18.0523 -18.5156
rtoes -13.7893
lfemur -12.7439 -3.68234 -22.1353
ltibia 15.7815
lfoot -2.76466 4.363
ltoes -9.94523
528
root 3.45254 18.4918 -0.700511 -1.76707 87.7393 -15.3104
lowerback -12.5828 -0.822395 -0.977396
upperback -5.97721 -0.749876 2.10338
thorax 0.834742 -0.212484 2.64236
lowerneck -20.2176 -10.7652 3.70827
upperneck 3.33367 38.4407 2.71877
head 27.8485 35.994 180.437
rclavicle 9.69075e-016 -2.26615e-014
rhumerus -14.863 17.125 -71.8399
rradius 114.856
rwrist -21.3345
rhand -28.7638 -5.53251
rfingers 7.12502
rthumb -2.12357 -35.5017
lclavicle 9.69075e-016 -2.26615e-014
lhumerus -20.1135 -17.5912 79.3737
lradius 109.878
lwrist 18.7335
lhand -34.9876 -8.66146
lfingers 7.12502
lthumb -8.13282 21.162
rfemur -12.1933 18.1187 18.0182
rtibia 11.5852
rfoot -18.0844 -18.4971
rtoes -13.8059
lfemur -12.7377 -3.71719 -22.074
ltibia 15.8088
lfoot -2.75585 4.40083
ltoes -10.0196
529
root 3.45711 18.4916 -0.700319 -2.79322 87.7723 -16.3473
lowerback -12.596 -0.810812 -0.886362
upperback -5.99518 -0.742473 2.06433
thorax 0.821219 -0.210167 2.55108
lowerneck -20.1781 -10.7589 3.68768
upperneck 3.38481 38.5587 2.76618
head 27.9061 36.2003 180.419
rclavicle -1.93815e-015 7.95139e-016
rhumerus -15.6031 17.7163 -71.818
rradius 114.676
rwrist -23.2688
rhand -28.4059 -6.14029
rfingers 7.12502
rthumb -1.77796 -36.1126
lclavicle -1.93815e-015 7.95139e-016
lhumerus -20.7843 -17.9378 79.3922
lradius 109.771
lwrist 19.8442
lhand -34.4418 -7.89499
lfingers 7.12502
lthumb -7.60601 21.9482
rfemur -12.1644 18.1018 18.0592
rtibia 11.5425
rfoot -18.0943 -18.5201
rtoes -13.7288
lfemur -12.7689 -3.75849 -22.0369
ltibia 15.8727
lfoot -2.74276 4.4148
ltoes -10.0157
